<svg xmlns="http://www.w3.org/2000/svg" xmlns:xlink="http://www.w3.org/1999/xlink" viewBox="0,0,256,256" width="48px" height="48px" fill-rule="nonzero"><g fill-opacity="0.70196" fill="#cc5151" fill-rule="nonzero" stroke="none" stroke-width="1" stroke-linecap="butt" stroke-linejoin="miter" stroke-miterlimit="10" stroke-dasharray="" stroke-dashoffset="0" font-family="none" font-weight="none" font-size="none" text-anchor="none" style="mix-blend-mode: normal"><g transform="scale(8,8)"><path d="M15.83203,3.05664c-0.93715,0.03959 -1.83019,0.40898 -2.52148,1.04297l-7.67383,6.9707c-1.04104,0.94837 -1.63507,2.29096 -1.63672,3.69922v9.23047c0.00331,2.76005 2.23995,4.99669 5,5h3h8h3c2.76005,-0.00331 4.99669,-2.23995 5,-5v-9.23047c-0.00274,-1.40689 -0.59668,-2.74785 -1.63672,-3.69531l-7.67383,-6.97461c-0.77675,-0.71237 -1.80441,-1.08747 -2.85742,-1.04297zM16.08203,5.05273c0.46955,0.01932 0.91715,0.20404 1.26367,0.52148l7.67188,6.97461c0.62489,0.56936 0.98144,1.37533 0.98242,2.2207v9.23047c0,1.65685 -1.34315,3 -3,3h-2v-4c0,-2.76142 -2.23858,-5 -5,-5c-2.76142,0 -5,2.23858 -5,5v4h-2c-1.65685,0 -3,-1.34315 -3,-3v-9.23047c0.00098,-0.84537 0.35754,-1.65134 0.98242,-2.2207l7.67188,-6.97461c0.38828,-0.3557 0.9016,-0.5432 1.42773,-0.52148zM15.91211,20.00195c0.81043,-0.02375 1.59596,0.28153 2.17767,0.84631c0.5817,0.56478 0.91004,1.34096 0.91022,2.15174v4h-6v-4c0.00036,-1.62237 1.29043,-2.95052 2.91211,-2.99805z"></path></g></g></svg>