<svg xmlns="http://www.w3.org/2000/svg" xmlns:xlink="http://www.w3.org/1999/xlink" viewBox="0,0,256,256" width="48px" height="48px" fill-rule="nonzero"><g fill-opacity="0.70196" fill="#cc5151" fill-rule="nonzero" stroke="none" stroke-width="1" stroke-linecap="butt" stroke-linejoin="miter" stroke-miterlimit="10" stroke-dasharray="" stroke-dashoffset="0" font-family="none" font-weight="none" font-size="none" text-anchor="none" style="mix-blend-mode: normal"><g transform="scale(8,8)"><path d="M15.5625,3c-1.37681,0.00024 -2.57671,0.93762 -2.91016,2.27344l-0.3418,1.37305c-0.02595,0.05936 -0.07665,0.10434 -0.13867,0.12305c-0.05348,0.02774 -0.11663,0.0299 -0.17187,0.00586l-1.21484,-0.72852c-1.18071,-0.70889 -2.69242,-0.52285 -3.66602,0.45117l-0.61914,0.61914c-0.97564,0.97343 -1.16255,2.48638 -0.45312,3.66797l0.72852,1.21484c0.02332,0.05927 0.01903,0.12586 -0.01172,0.18164c-0.01857,0.05745 -0.06141,0.10385 -0.11719,0.12695l-1.375,0.3418c-1.33575,0.33438 -2.27236,1.53514 -2.27148,2.91211v0.875c0.00024,1.37681 0.93762,2.57671 2.27344,2.91016l1.37305,0.3418c0.05936,0.02595 0.10434,0.07665 0.12305,0.13867c0.02774,0.05348 0.0299,0.11663 0.00586,0.17188l-0.72852,1.21484c-0.70889,1.18071 -0.52285,2.69242 0.45117,3.66602l0.61914,0.61914c0.97343,0.97564 2.48638,1.16255 3.66797,0.45313l1.21484,-0.72852c0.05934,-0.0229 0.12574,-0.01862 0.18164,0.01172c0.05745,0.01857 0.10385,0.06141 0.12695,0.11719l0.3418,1.375c0.33438,1.33575 1.53514,2.27236 2.91211,2.27148h0.875c1.37794,-0.00069 2.57823,-0.93998 2.91016,-2.27734l0.3418,-1.375c0.02638,-0.05979 0.07786,-0.10484 0.14063,-0.12305c0.05411,-0.02394 0.11581,-0.02394 0.16992,0l1.2168,0.72852c1.18071,0.70889 2.69242,0.52285 3.66602,-0.45117l0.61914,-0.61914c0.97402,-0.97359 1.16006,-2.48531 0.45117,-3.66602l-0.72852,-1.21289c-0.02457,-0.0604 -0.02025,-0.12871 0.01172,-0.18555c0.01857,-0.05745 0.06141,-0.10385 0.11719,-0.12695l1.375,-0.3418c1.33575,-0.33438 2.27236,-1.53514 2.27148,-2.91211v-0.875c-0.00069,-1.37794 -0.93998,-2.57823 -2.27734,-2.91016l-1.375,-0.3418c-0.05936,-0.02595 -0.10434,-0.07665 -0.12305,-0.13867c-0.02587,-0.05437 -0.02587,-0.1175 0,-0.17187l0.72656,-1.2168c0.70839,-1.18114 0.52153,-2.6929 -0.45312,-3.66602l-0.61914,-0.61914c-0.97328,-0.97303 -2.4838,-1.15903 -3.66406,-0.45117l-1.21484,0.72852c-0.05934,0.0229 -0.12574,0.01862 -0.18164,-0.01172c-0.05745,-0.01857 -0.10385,-0.06141 -0.12695,-0.11719l-0.3418,-1.375c-0.33438,-1.33575 -1.53514,-2.27236 -2.91211,-2.27148zM15.5625,5h0.875c0.45918,-0.00022 0.8595,0.3123 0.9707,0.75781l0.34375,1.375c0.18336,0.6694 0.6659,1.21643 1.30719,1.48188c0.64129,0.26545 1.36928,0.21951 1.97211,-0.12446l1.21484,-0.72852c0.39372,-0.23664 0.89802,-0.17461 1.22266,0.15039l0.61914,0.61914c0.325,0.32464 0.38703,0.82894 0.15039,1.22266l-0.72852,1.21484c-0.3448,0.60268 -0.39119,1.33104 -0.12563,1.97259c0.26556,0.64156 0.81316,1.12404 1.48305,1.3067l1.375,0.34375c0.44551,0.11121 0.75803,0.51153 0.75781,0.9707v0.875c0.00067,0.45804 -0.30995,0.85798 -0.75391,0.9707l-1.375,0.34375c-0.66964,0.18301 -1.21695,0.66552 -1.48246,1.30695c-0.26551,0.64142 -0.21934,1.36959 0.12504,1.97235l0.72852,1.21484c0.23664,0.39372 0.17461,0.89802 -0.15039,1.22266l-0.62109,0.61914c-0.32432,0.32402 -0.82743,0.386 -1.2207,0.15039l-1.2168,-0.72852c-0.60344,-0.35267 -1.33856,-0.39762 -1.98047,-0.12109c-0.64465,0.25708 -1.12791,0.80637 -1.30078,1.47852l-0.34375,1.375c-0.11121,0.44551 -0.51153,0.75803 -0.9707,0.75781h-0.875c-0.45918,0.00022 -0.8595,-0.3123 -0.9707,-0.75781l-0.34375,-1.375c-0.17372,-0.6745 -0.65928,-1.22539 -1.30664,-1.48242c-0.27757,-0.11726 -0.57563,-0.17833 -0.87695,-0.17969c-0.38613,0.00018 -0.76491,0.10551 -1.0957,0.30469l-1.21484,0.72852c-0.39372,0.23664 -0.89802,0.17461 -1.22266,-0.15039l-0.61914,-0.61914c-0.325,-0.32464 -0.38703,-0.82894 -0.15039,-1.22266l0.72852,-1.21484c0.3448,-0.60268 0.39119,-1.33104 0.12563,-1.97259c-0.26556,-0.64156 -0.81316,-1.12404 -1.48305,-1.3067l-1.375,-0.34375c-0.44551,-0.11121 -0.75803,-0.51153 -0.75781,-0.9707v-0.875c-0.00022,-0.45918 0.3123,-0.8595 0.75781,-0.9707l1.375,-0.34375c0.66964,-0.18301 1.21695,-0.66552 1.48246,-1.30695c0.26551,-0.64142 0.21934,-1.36959 -0.12504,-1.97235l-0.72852,-1.21484c-0.23664,-0.39372 -0.17461,-0.89802 0.15039,-1.22266l0.61914,-0.61914c0.32362,-0.32707 0.82942,-0.38928 1.22266,-0.15039l1.21484,0.72852c0.60268,0.3448 1.33104,0.39119 1.97259,0.12563c0.64156,-0.26556 1.12404,-0.81316 1.3067,-1.48305l0.34375,-1.375c0.11121,-0.44551 0.51153,-0.75803 0.9707,-0.75781zM15.75,10.00586c-3.2561,0.14378 -5.80193,2.86063 -5.73401,6.11919c0.06792,3.25856 2.72475,5.86697 5.98401,5.87495c3.31234,-0.00331 5.99669,-2.68766 6,-6c-0.00018,-1.63456 -0.66722,-3.19829 -1.84692,-4.3297c-1.1797,-1.13141 -2.76994,-1.73254 -4.40308,-1.66444zM16,12c2.20914,0 4,1.79086 4,4c0,2.20914 -1.79086,4 -4,4c-2.20914,0 -4,-1.79086 -4,-4c0,-2.20914 1.79086,-4 4,-4z"></path></g></g></svg>