<svg xmlns="http://www.w3.org/2000/svg" xmlns:xlink="http://www.w3.org/1999/xlink" viewBox="0,0,256,256" width="48px" height="48px" fill-rule="nonzero"><g fill-opacity="0.70196" fill="#cc5151" fill-rule="nonzero" stroke="none" stroke-width="1" stroke-linecap="butt" stroke-linejoin="miter" stroke-miterlimit="10" stroke-dasharray="" stroke-dashoffset="0" font-family="none" font-weight="none" font-size="none" text-anchor="none" style="mix-blend-mode: normal"><g transform="scale(8,8)"><path d="M15.75,3.00586c-2.44941,0.10481 -4.58866,1.68929 -5.40291,4.00178c-0.81425,2.31249 -0.13968,4.88774 1.70369,6.50408c-3.61491,1.25731 -6.04117,4.66097 -6.05078,8.48828v4c0,1.65685 1.34315,3 3,3h14c1.65685,0 3,-1.34315 3,-3v-4c-0.00965,-3.82955 -2.43875,-7.23468 -6.05664,-8.49023c1.3028,-1.13709 2.05228,-2.78053 2.05664,-4.50977c-0.00018,-1.63456 -0.66722,-3.19829 -1.84692,-4.3297c-1.1797,-1.13141 -2.76994,-1.73254 -4.40308,-1.66444zM16,5c2.20914,0 4,1.79086 4,4c0,2.20914 -1.79086,4 -4,4c-2.20914,0 -4,-1.79086 -4,-4c0,-2.20914 1.79086,-4 4,-4zM15,15h1h1c3.86417,0.00441 6.99559,3.13583 7,7v4c0,0.55228 -0.44772,1 -1,1h-14c-0.55228,0 -1,-0.44772 -1,-1v-4c0.00441,-3.86417 3.13583,-6.99559 7,-7z"></path></g></g></svg>